<svg id="Layer_1" data-name="Layer 1" xmlns="http://www.w3.org/2000/svg" height="44px" width="125px" viewBox="0 0 816.4 316.12"><defs><style>.cls-1{fill:#fff;}.cls-2{fill:#2457aa;}.cls-3{fill:#fdd400;}</style></defs><path class="cls-1" d="M96.08,132.58H71.8V242.43H17.42V132.58H.59v-45H17.42V86.21q0-29.8,17.53-45.68T85.32,24.66c4.42,0,7.82.1,10.21.28V71a52.88,52.88,0,0,0-6.07-.27q-8.83,0-13,4T71.8,87.59H96.08Z" transform="translate(-0.59)"/><path class="cls-1" d="M123,65.37a25.46,25.46,0,0,1-8.69-19.73A26.22,26.22,0,0,1,123,25.49q8.7-8,23-8,14.07,0,22.77,8a26.26,26.26,0,0,1,8.69,20.15,25.5,25.5,0,0,1-8.69,19.73q-8.7,7.88-22.77,7.87Q131.69,73.24,123,65.37Zm49.82,22.22V242.43h-54.1V87.59Z" transform="translate(-0.59)"/><path class="cls-1" d="M283.21,93.94a53.53,53.53,0,0,1,27.87-7.73V143.9H295.9q-17.65,0-26.22,6.9t-8.55,24v67.62H207V87.59h54.1v27.33A70.38,70.38,0,0,1,283.21,93.94Z" transform="translate(-0.59)"/><path class="cls-1" d="M480.82,175.91H378.43q.82,12.71,7,18.91T401.33,201q13.53,0,19.32-12.14h57.69a67.58,67.58,0,0,1-13.94,28.56,71.83,71.83,0,0,1-26.08,19.74,82.89,82.89,0,0,1-34.78,7.17q-22.91,0-40.71-9.66A69.31,69.31,0,0,1,335,207.1q-10.08-17.94-10.08-42.23t9.94-42.09a68.66,68.66,0,0,1,27.74-27.46q17.79-9.66,41-9.66,22.9,0,40.57,9.39a67.51,67.51,0,0,1,27.6,26.9q9.94,17.53,9.94,41.27A98.33,98.33,0,0,1,480.82,175.91Zm-54.37-26.22q0-9.93-6.62-15.59t-16.56-5.66q-9.94,0-16.29,5.38t-8.28,15.87Z" transform="translate(-0.59)"/><path class="cls-1" d="M558.38,197.44h66v45H498.76V199.65l61.55-67.07h-61v-45H622.13v42.78Z" transform="translate(-0.59)"/><path class="cls-1" d="M817,87.59,718.73,316.12H659.94l37-80.32L633.45,87.59h60.16l32.57,87.77,31.47-87.77Z" transform="translate(-0.59)"/><path class="cls-2" d="M372.87,153.76l57.44.07S462.8,88.17,405.38,63.9c0,0,2.18,23.51-13.31,42.86,0,0,5.17-11.06-4.39-22.83,0,0-5,17.83-12.09,25.85S359.64,130.93,372.87,153.76Z" transform="translate(-0.59)"/><path class="cls-3" d="M372.85,154.09c-10.91-21.39-5.07-33.62,3.34-45.15a69.73,69.73,0,0,0,11.62-25.13s7.22,8.83,4.31,22.67c12.79-13.36,15.25-34.63,13.31-42.81,28.87,19,41.18,60.09,24.51,90.5,88.59-46.93,22.17-117.39,10.6-125.33,3.85,7.93,4.57,21.35-3.24,27.86C424.14,9.66,391.52,0,391.52,0c3.83,24.24-14,50.72-31.28,70.52-.59-9.66-1.24-16.33-6.64-25.6-1.22,17.55-15.53,31.84-19.42,49.44-5.28,23.82,3.86,41.27,38.67,59.73Z" transform="translate(-0.59)"/></svg>